<?xml version="1.0" encoding="utf-8"?>
<!-- Generator: Adobe Illustrator 22.1.0, SVG Export Plug-In . SVG Version: 6.00 Build 0)  -->
<svg version="1.1" id="Layer_1" xmlns="http://www.w3.org/2000/svg" xmlns:xlink="http://www.w3.org/1999/xlink" x="0px" y="0px"
	 viewBox="0 0 640 640" style="enable-background:new 0 0 640 640;" xml:space="preserve">
<style type="text/css">
	.st0{fill:#FFFFFF;}
</style>
<g>
	<g>
		<g>
			<path class="st0" d="M516,104h-24V64h-40v40H188V64h-40v40h-24c-33.1,0-60,26.9-60,60v352c0,33.1,26.9,60,60,60h392
				c33.1,0,60-26.9,60-60V164C576,130.9,549.1,104,516,104z M536,516c0,11-9,20-20,20H124c-11,0-20-9-20-20V252h432V516z M536,212
				H104v-48c0-11,9-20,20-20h24v40h40v-40h264v40h40v-40h24c11,0,20,9,20,20V212z"/>
		</g>
	</g>
	<g>
		<g>
			<rect x="140" y="294" class="st0" width="40" height="40"/>
		</g>
	</g>
	<g>
		<g>
			<rect x="220" y="294" class="st0" width="40" height="40"/>
		</g>
	</g>
	<g>
		<g>
			<rect x="300" y="294" class="st0" width="40" height="40"/>
		</g>
	</g>
	<g>
		<g>
			<rect x="380" y="294" class="st0" width="40" height="40"/>
		</g>
	</g>
	<g>
		<g>
			<rect x="460" y="294" class="st0" width="40" height="40"/>
		</g>
	</g>
	<g>
		<g>
			<rect x="140" y="374" class="st0" width="40" height="40"/>
		</g>
	</g>
	<g>
		<g>
			<rect x="220" y="374" class="st0" width="40" height="40"/>
		</g>
	</g>
	<g>
		<g>
			<rect x="300" y="374" class="st0" width="40" height="40"/>
		</g>
	</g>
	<g>
		<g>
			<rect x="380" y="374" class="st0" width="40" height="40"/>
		</g>
	</g>
	<g>
		<g>
			<rect x="140" y="454" class="st0" width="40" height="40"/>
		</g>
	</g>
	<g>
		<g>
			<rect x="220" y="454" class="st0" width="40" height="40"/>
		</g>
	</g>
	<g>
		<g>
			<rect x="300" y="454" class="st0" width="40" height="40"/>
		</g>
	</g>
	<g>
		<g>
			<rect x="380" y="454" class="st0" width="40" height="40"/>
		</g>
	</g>
	<g>
		<g>
			<rect x="460" y="374" class="st0" width="40" height="40"/>
		</g>
	</g>
</g>
</svg>
