<?xml version="1.0" encoding="utf-8"?>
<!-- Generator: Adobe Illustrator 22.1.0, SVG Export Plug-In . SVG Version: 6.00 Build 0)  -->
<svg version="1.1" id="Layer_1" xmlns="http://www.w3.org/2000/svg" xmlns:xlink="http://www.w3.org/1999/xlink" x="0px" y="0px"
	 viewBox="0 0 640 640" style="enable-background:new 0 0 640 640;" xml:space="preserve">
<style type="text/css">
	.st0{fill:#FFFFFF;}
</style>
<g>
	<g>
		<path class="st0" d="M544.4,148.2c0.3-33.3-24.3-61-56.4-65.7c-2.3-13.9-8.8-26.7-19.1-36.7c-12.4-12.2-28.9-18.9-46.3-18.9H197.7
			c-4.6,0-9,1.7-12.4,4.8L102,107.3c-3.9,3.4-6.2,8.2-6.4,13.3l0,0.2v371c0,33.8,25.7,61.8,58.8,65.8c2.3,13.8,8.9,26.5,19,36.5
			c12.4,12.2,28.9,18.9,46.3,18.9h259.1c36.3-0.1,65.7-29.7,65.6-66L544.4,148.2z M488.3,492.2l0-371.6
			c11.4,3.9,19.1,14.5,19.1,27.6v398.7c0,16.4-12.6,29.2-28.6,29.2h-259c-12.2,0-22.6-7.3-27-17.9h229.9
			C459,558,488.4,528.4,488.3,492.2z M158.8,105.7L179.1,87v13.3c0,2.7-1.6,5.4-4.8,5.4H158.8z M132.6,142.7h41.8
			c23,0,41.8-19,41.8-42.4V64h206.5c16.1,0,28.6,12.8,28.6,29.2v398.7c0,16.4-12.6,29.2-28.6,29.2H162.4
			c-16.2,0-29.8-13.4-29.8-29.2V142.7z"/>
		<path class="st0" d="M169.6,321.8h126.5c10.2,0,18.5-8.3,18.5-18.5c0-10.2-8.3-18.5-18.5-18.5H169.6c-10.2,0-18.5,8.3-18.5,18.5
			C151.1,313.5,159.4,321.8,169.6,321.8z"/>
		<path class="st0" d="M169.6,380.3h126.5c10.2,0,18.5-8.3,18.5-18.5c0-10.2-8.3-18.5-18.5-18.5H169.6c-10.2,0-18.5,8.3-18.5,18.5
			C151.1,372,159.4,380.3,169.6,380.3z"/>
		<path class="st0" d="M169.6,438.8h199.3c10.2,0,18.5-8.3,18.5-18.5c0-10.2-8.3-18.5-18.5-18.5H169.6c-10.2,0-18.5,8.3-18.5,18.5
			C151.1,430.5,159.4,438.8,169.6,438.8z"/>
	</g>
	<g>
		<path class="st0" d="M340.6,140.3c3.6-1.2,8.3-1.3,12.4,0.6L340,103c-28.2,12.1-43,43.7-33.7,73.3l24.4-8.4
			c-0.8-1.4-1.3-2.6-1.7-3.8C325.6,154.4,330.8,143.7,340.6,140.3z"/>
		<path class="st0" d="M337.7,174.8l-28.2,9.7c12.4,25.8,41.6,39.5,69.6,32.1l-8.8-25.7C361.9,187.1,344.9,179,337.7,174.8z"/>
		<path class="st0" d="M370.2,130.4c9.8-3.4,20.5,1.2,23.8,11c0.4,1.3,0.9,2.7,1.1,4.5l24.9-8.6c-10.9-29.1-42.1-45-71.8-37
			l13.5,39.2C363.4,135,366.3,131.7,370.2,130.4z"/>
		<path class="st0" d="M378.1,186.9l9.2,26.9c26.7-11.3,41.3-40.1,35.2-68.1l-29.4,10.1C389.9,163.3,382.4,178.4,378.1,186.9z"/>
		<path class="st0" d="M363.1,166.1l2.2,6.4c0.6,1.8,2.7,2.8,4.5,2.2c1.8-0.6,2.8-2.6,2.2-4.5l-2.2-6.4L363.1,166.1z"/>
		<path class="st0" d="M363.1,166.1l2.2,6.4c0.6,1.8,2.7,2.8,4.5,2.2c1.8-0.6,2.8-2.6,2.2-4.5l-2.2-6.4L363.1,166.1z"/>
		<path class="st0" d="M365.5,151.4c-0.6-1.9-2.7-2.8-4.5-2.2c-1.8,0.6-2.8,2.6-2.2,4.5l2,5.7l6.7-2.3L365.5,151.4z"/>
		<path class="st0" d="M365.5,151.4c-0.6-1.9-2.7-2.8-4.5-2.2c-1.8,0.6-2.8,2.6-2.2,4.5l2,5.7l6.7-2.3L365.5,151.4z"/>
		<path class="st0" d="M354.7,161.5c-1.8,0.6-2.8,2.6-2.2,4.5c0.6,1.8,2.6,2.8,4.5,2.2l6.1-2.1l-2.3-6.7L354.7,161.5z"/>
		<path class="st0" d="M354.7,161.5c-1.8,0.6-2.8,2.6-2.2,4.5c0.6,1.8,2.6,2.8,4.5,2.2l6.1-2.1l-2.3-6.7L354.7,161.5z"/>
		<path class="st0" d="M375.9,161.7c1.8-0.6,2.8-2.7,2.2-4.5c-0.6-1.9-2.6-2.8-4.5-2.2l-6.1,2.1l2.3,6.7L375.9,161.7z"/>
		<path class="st0" d="M375.9,161.7c1.8-0.6,2.8-2.7,2.2-4.5c-0.6-1.9-2.6-2.8-4.5-2.2l-6.1,2.1l2.3,6.7L375.9,161.7z"/>
		
			<rect x="361.8" y="158.1" transform="matrix(0.9457 -0.3251 0.3251 0.9457 -32.6919 127.545)" class="st0" width="7.1" height="7.1"/>
		
			<rect x="361.8" y="158.1" transform="matrix(0.9457 -0.3251 0.3251 0.9457 -32.6919 127.545)" class="st0" width="7.1" height="7.1"/>
		
			<rect x="361.8" y="158.1" transform="matrix(0.9457 -0.3251 0.3251 0.9457 -32.6919 127.545)" class="st0" width="7.1" height="7.1"/>
	</g>
</g>
</svg>
